<svg width="333" height="204" viewBox="0 0 333 204" fill="none" xmlns="http://www.w3.org/2000/svg">
<g filter="url(#filter0_d_1_2731)">
<path d="M4 28.0024C4 19.7181 10.7157 13.0024 19 13.0024H53.1051C56.0194 13.0024 58.8706 12.1534 61.3103 10.5593L74.6239 1.85955C77.2826 0.1222 80.7174 0.122202 83.3761 1.85956L96.6897 10.5593C99.1294 12.1534 101.981 13.0024 104.895 13.0024H314C322.284 13.0024 329 19.7181 329 28.0024V105.27V181C329 189.284 322.284 196 314 196H19C10.7157 196 4 189.284 4 181V28.0024Z" fill="#313538"/>
</g>
<defs>
<filter id="filter0_d_1_2731" x="0" y="0.556641" width="333" height="203.443" filterUnits="userSpaceOnUse" color-interpolation-filters="sRGB">
<feFlood flood-opacity="0" result="BackgroundImageFix"/>
<feColorMatrix in="SourceAlpha" type="matrix" values="0 0 0 0 0 0 0 0 0 0 0 0 0 0 0 0 0 0 127 0" result="hardAlpha"/>
<feOffset dy="4"/>
<feGaussianBlur stdDeviation="2"/>
<feComposite in2="hardAlpha" operator="out"/>
<feColorMatrix type="matrix" values="0 0 0 0 0 0 0 0 0 0 0 0 0 0 0 0 0 0 0.25 0"/>
<feBlend mode="normal" in2="BackgroundImageFix" result="effect1_dropShadow_1_2731"/>
<feBlend mode="normal" in="SourceGraphic" in2="effect1_dropShadow_1_2731" result="shape"/>
</filter>
</defs>
</svg>
