<svg width="133" height="126" viewBox="0 0 133 126" fill="none" xmlns="http://www.w3.org/2000/svg">
<path d="M24.3045 38.2764L19.7912 44.2514L27.177 49.8303L28.1565 48.5336L21.891 43.801L24.4454 40.4193L30.7108 45.1519L31.6903 43.8552L24.3045 38.2764Z" fill="#CBCECF"/>
<path d="M30.8191 31.7406C28.5772 33.4743 28.5857 36.1628 30.2478 38.3121C32.0133 40.5951 34.6333 41.0505 36.7312 39.4282C38.8188 37.8138 39.0474 35.1555 37.2819 32.8725C35.5243 30.5998 32.8861 30.1421 30.8191 31.7406ZM31.6335 32.8363C32.991 31.7865 34.6819 32.188 35.9782 33.8643C37.2744 35.5405 37.2536 37.2986 35.9167 38.3325C34.5387 39.3981 32.8478 38.9966 31.5276 37.2895C30.2473 35.6339 30.2863 33.8781 31.6335 32.8363Z" fill="#CBCECF"/>
<path d="M48.5008 28.6859C49.2054 30.8284 48.3484 32.8016 46.2106 33.6873C43.7966 34.6874 41.4749 33.5666 40.3553 30.8644C39.3503 28.4383 39.9817 25.7846 42.5759 24.7099C44.2813 24.0033 46.2547 24.2833 47.3639 26.1456L45.8747 26.7626C45.2426 25.8143 44.1842 25.5351 43.0793 25.9929C41.2777 26.7392 41.2168 28.6641 41.8686 30.2374C42.5254 31.8228 43.8937 33.1556 45.7192 32.3993C47.1124 31.8221 47.3658 30.6336 46.9995 29.3079L48.5008 28.6859Z" fill="#CBCECF"/>
<path d="M60.3277 19.7644L58.0819 20.0349L56.4699 27.5225L53.0354 20.6429L50.7767 20.915L51.8838 30.1046L53.4068 29.9211L52.5532 22.8353L56.0269 29.6054L57.3433 29.4468L59.0452 22.0532L59.8989 29.139L61.4348 28.9539L60.3277 19.7644Z" fill="#CBCECF"/>
<path d="M69.834 20.2409C72.41 20.6788 73.8603 22.9297 73.3788 25.7621C72.8952 28.6073 70.7847 30.2397 68.1831 29.7974C65.5686 29.353 64.1289 27.1171 64.6126 24.2719C65.0679 21.5933 67.0401 19.766 69.834 20.2409ZM69.5796 21.5823C67.9007 21.2969 66.5826 22.4574 66.2318 24.5208C65.8701 26.6482 66.7201 28.1641 68.4375 28.4561C70.1036 28.7393 71.411 27.5638 71.7662 25.4748C72.1213 23.3857 71.2713 21.8698 69.5796 21.5823Z" fill="#CBCECF"/>
<path d="M85.4606 25.47L84.8838 26.7501L82.1933 25.5378L78.9676 32.6966L77.4861 32.029L80.7118 24.8702L78.0213 23.6579L78.5981 22.3778L85.4606 25.47Z" fill="#CBCECF"/>
<path d="M90.0398 28.0419L84.4044 35.3847L85.6935 36.374L87.8622 33.5483L89.9351 35.1392C91.4201 36.279 92.998 36.0807 94.0665 34.6884C95.2459 33.1518 94.7425 31.6511 93.2265 30.4877L90.0398 28.0419ZM90.5058 30.1038L92.1868 31.394C93.0015 32.0193 93.5128 32.805 92.7846 33.7538C92.1198 34.62 91.2914 34.525 90.456 33.8839L88.6616 32.5067L90.5058 30.1038Z" fill="#CBCECF"/>
<path d="M103.227 40.6403L102.17 41.5034L98.9725 37.5855L97.069 39.139L100.036 42.7749L99.019 43.605L96.0517 39.9691L93.9367 41.6952L97.1834 45.6736L96.1057 46.553L91.8398 41.3258L99.0108 35.4735L103.227 40.6403Z" fill="#CBCECF"/>
<path d="M108.97 50.7542L107.709 51.3711L106.412 48.7201L99.3588 52.1699L98.6449 50.7102L105.698 47.2604L104.402 44.6095L105.663 43.9926L108.97 50.7542Z" fill="#CBCECF"/>
<path d="M105.215 64.1847C106.989 63.7779 107.737 62.4459 107.283 60.4692L106.731 58.0617L110.178 57.2712L109.814 55.6874L100.793 57.7566L101.708 61.748C102.159 63.712 103.428 64.5945 105.215 64.1847ZM104.813 62.6096C103.838 62.8334 103.224 62.4272 102.986 61.3882L102.448 59.044L105.439 58.3582L105.971 60.677C106.197 61.6653 105.764 62.3916 104.813 62.6096Z" fill="#CBCECF"/>
<path d="M112.13 72.7017L111.579 76.8905C111.317 78.8754 110.246 79.7439 108.879 79.564C107.99 79.4469 107.327 78.8088 107.119 77.9948C106.724 79.0048 105.848 79.5844 104.662 79.4283C103.038 79.2144 102.112 77.8861 102.337 76.1719L102.953 71.4933L112.13 72.7017ZM110.621 74.1027L108.095 73.77L107.807 75.9611C107.649 77.1598 107.904 77.8097 108.832 77.9319C109.979 78.0829 110.206 77.2604 110.326 76.3453L110.621 74.1027ZM106.935 73.6173L104.061 73.2388L103.744 75.649C103.601 76.7317 103.74 77.6678 104.913 77.8223C106.176 77.9886 106.484 77.0457 106.621 76.0017L106.935 73.6173Z" fill="#FF3E41"/>
<path d="M101.468 81.6149L110.047 85.0904L109.437 86.5965L102.858 83.9313L107.943 90.2835L107.235 92.0305L98.6564 88.555L99.2666 87.0489L105.845 89.7141L100.76 83.362L101.468 81.6149Z" fill="#FF3E41"/>
<path d="M90.6016 96.4952L91.54 95.2327L93.3867 96.6055L96.9852 91.7644L95.1385 90.3917L96.077 89.1293L99.0504 91.3396L98.5153 92.0595C99.0981 93.3674 100.903 95.3409 102.948 96.861L104.096 97.7141L100.497 102.555L94.1955 97.8708L93.575 98.7055L90.6016 96.4952ZM95.1649 96.5667L100.34 100.413L102.023 98.1494L101.574 97.8159C99.7274 96.4432 98.0634 94.6069 97.4761 93.4576L95.1649 96.5667Z" fill="#FF3E41"/>
<path d="M89.8001 109.758L88.933 108.704L92.8389 105.491L91.2783 103.594L87.6536 106.575L86.8196 105.56L90.4443 102.58L88.7103 100.471L84.7442 103.733L83.8607 102.658L89.0718 98.3728L94.951 105.522L89.8001 109.758Z" fill="#FF3E41"/>
<path d="M81.3778 114.47C79.0099 115.575 76.5368 114.548 75.322 111.945C74.1017 109.33 74.9092 106.787 77.3006 105.671C79.7039 104.549 82.1596 105.57 83.38 108.185C84.5288 110.647 83.946 113.272 81.3778 114.47ZM80.8242 113.222C82.3674 112.502 82.7916 110.798 81.9066 108.901C80.9941 106.946 79.4328 106.182 77.8542 106.919C76.3228 107.633 75.9159 109.344 76.8119 111.264C77.7079 113.184 79.2691 113.948 80.8242 113.222Z" fill="#FF3E41"/>
<path fill-rule="evenodd" clip-rule="evenodd" d="M58.6465 59.5L77.3542 70.0001L58.6465 80.5L58.6465 59.5ZM61.6465 64.7986L61.6465 75.2014L71.5233 70.0001L61.6465 64.7986Z" fill="#FF3E41"/>
</svg>
