<svg width="73" height="29" viewBox="0 0 73 29" fill="none" xmlns="http://www.w3.org/2000/svg">
<path fill-rule="evenodd" clip-rule="evenodd" d="M0 28.5989H7.22621V12.1659C10.5908 17.8304 13.8747 23.3588 17.2257 29.0004C20.5569 23.4113 23.9081 17.7721 27.2409 12.1626V28.5989H32.7338H34.4672H54.0564L50.6996 23.1106H34.4672V16.9988H47.2556L43.8988 11.5105H34.4673V5.5448H40.5609L37.2041 0.0564864C33.8836 0.0564864 30.6087 0.000488281 27.2411 0.000488281L17.2338 17.3438L7.2264 0.000488281H0.000190662V28.5989L0 28.5989ZM73 0.0564236C61.4193 0.0564236 50.0623 0.0564236 38.4795 0.0564236L41.8362 5.54474H50.0705H52.278V23.1106L55.8856 29.0004L59.5041 23.1106V5.54474H61.4089H69.6431L72.9999 0.0564236H73Z" fill="white"/>
</svg>
