<svg width="28" height="28" viewBox="0 0 28 28" fill="none" xmlns="http://www.w3.org/2000/svg">
<path fill-rule="evenodd" clip-rule="evenodd" d="M7.69107 11.7436L5.8335 8.84117L7.7988 7.58337L9.32129 9.96227H21.5372L18.0372 16.9623H10.8223L7.69107 11.7436ZM10.7434 12.2956L12.1434 14.6289H16.5951L17.7618 12.2956H10.7434Z" fill="white"/>
<path d="M13.8161 19.8789C13.8161 20.8454 13.0326 21.6289 12.0661 21.6289C11.0996 21.6289 10.3161 20.8454 10.3161 19.8789C10.3161 18.9124 11.0996 18.1289 12.0661 18.1289C13.0326 18.1289 13.8161 18.9124 13.8161 19.8789Z" fill="white"/>
<path d="M16.7328 21.6289C17.6993 21.6289 18.4828 20.8454 18.4828 19.8789C18.4828 18.9124 17.6993 18.1289 16.7328 18.1289C15.7663 18.1289 14.9828 18.9124 14.9828 19.8789C14.9828 20.8454 15.7663 21.6289 16.7328 21.6289Z" fill="white"/>
</svg>
