<svg width="165" height="67" viewBox="0 0 165 67" fill="none" xmlns="http://www.w3.org/2000/svg">
<path d="M56.5448 31.8171C56.4871 31.7943 56.4177 31.7714 56.4177 31.7029C56.4177 31.6571 56.4408 31.6229 56.4871 31.6C56.5679 31.5657 58.5669 30.8571 58.5669 28.5257C58.5669 25.9314 56.799 24.3886 53.8179 24.3886H46.5962V39.6343H54.4765C56.7759 39.6343 59.2486 38.0229 59.2486 35.4286C59.2486 32.9486 57.3537 32.08 56.5448 31.8171ZM50.2359 27.5086C50.2359 27.4514 50.2822 27.4057 50.3399 27.4057H53.2055C54.153 27.4057 54.8001 28.0343 54.8001 28.9714C54.8001 29.7029 54.2223 30.4914 53.1362 30.4914H50.3399C50.2822 30.4914 50.2359 30.4457 50.2359 30.3886V27.5086ZM53.2055 36.6286H50.3399C50.2822 36.6286 50.2359 36.5829 50.2359 36.5257V33.4857C50.2359 33.4286 50.2822 33.3829 50.3399 33.3829H53.1362C54.5112 33.3829 55.2969 33.9657 55.2969 34.9943C55.2969 36.0571 54.569 36.6286 53.2055 36.6286ZM83.6407 30.4571L83.0861 30.3429C81.8382 30.08 80.6249 29.7486 80.6249 28.6857C80.6249 27.6229 81.6302 27.1429 82.6239 27.1429C83.7909 27.1429 84.9464 27.6571 85.8245 28.5486L88.1124 26.3086C87.1302 25.2343 85.3855 24 82.5661 24C79.169 24 76.8812 25.9086 76.8812 28.7543C76.8812 31.76 79.273 32.8914 81.2835 33.3143L81.8266 33.4286C83.7794 33.84 84.7037 34.1486 84.7037 35.2457C84.7037 36.2286 83.814 36.88 82.4968 36.88C80.9484 36.88 79.5734 36.2057 78.5335 34.9371L76.1879 37.2114C77.4358 38.6743 79.0881 40 82.543 40C85.4895 40 88.4821 38.3086 88.4821 35.0629C88.4706 31.7371 86.1827 30.9829 83.6407 30.4571ZM114.087 24.3886V29.9657C114.087 30.0229 114.041 30.0686 113.983 30.0686H109.246C109.188 30.0686 109.142 30.0229 109.142 29.9657V24.3886H105.26V39.6343H109.142V33.6457C109.142 33.5886 109.188 33.5429 109.246 33.5429H113.983C114.041 33.5429 114.087 33.5886 114.087 33.6457V39.6343H117.993V24.3886H114.087ZM97.4486 36.5143C95.7038 36.5143 93.8204 35.0743 93.8204 31.9086C93.8204 29.0171 95.5883 27.5086 97.3331 27.5086C98.6041 27.5086 99.4938 28.0343 100.199 29.2L103.18 27.2457C101.655 25.0286 99.8404 24.0229 97.31 24.0229C92.353 24.0229 90.1345 27.9886 90.1345 31.9086C90.1345 36.6743 93.0694 40 97.2637 40C100.384 40 101.805 38.8686 103.295 36.7771L100.291 34.7771C99.6209 35.8514 98.893 36.5143 97.4486 36.5143ZM67.9725 24C63.7319 24 60.8894 27.2114 60.8894 32C60.8894 36.7886 63.7319 40 67.9725 40C72.2131 40 75.0555 36.7886 75.0555 32C75.0555 27.2114 72.2131 24 67.9725 24ZM67.9725 36.5143C65.8926 36.5143 64.5523 34.7429 64.5523 32C64.5523 29.2686 65.8926 27.5086 67.9725 27.5086C70.0639 27.5086 71.4158 29.2686 71.4158 32C71.4158 34.7429 70.0639 36.5143 67.9725 36.5143Z" fill="white"/>
</svg>
