<svg width="165" height="67" viewBox="0 0 165 67" fill="none" xmlns="http://www.w3.org/2000/svg">
<path d="M84.7778 31.4746C83.4639 32.8987 81.1899 33.0004 79.775 31.6781C78.36 30.3557 78.259 28.067 79.5729 26.6429C80.8867 25.2188 83.0597 25.1171 84.5251 26.3886C85.9906 27.711 86.1422 29.9488 84.8283 31.4238C84.8283 31.4746 84.7778 31.4746 84.7778 31.4746Z" fill="white"/>
<path d="M83.1105 16.8267C83.4137 17.1319 83.6664 17.3862 83.9191 17.7422C84.7781 18.7594 85.4856 19.9292 85.9909 21.1498C86.85 21.3024 87.7091 21.3533 88.5681 21.3533H88.7197H88.8713C91.1959 21.1498 93.3688 20.0818 94.9859 18.4034L95.188 18.1999C94.8848 17.793 94.5311 17.437 94.1773 17.081C88.2144 10.9777 78.7646 10.3166 71.9932 15.4026C77.1981 12.8596 80.8365 14.5888 83.1105 16.8267Z" fill="white"/>
<path d="M71.033 34.2211C71.134 33.8142 71.2351 33.4073 71.3867 33.0513C71.8415 31.7798 72.4984 30.5592 73.2564 29.4911C72.9532 28.6773 72.5995 27.9144 72.1447 27.1515L72.0436 26.9989C72.0436 26.9481 71.9931 26.8972 71.9426 26.8972C70.5782 24.9645 68.6073 23.5913 66.3333 23.0318L66.0301 22.981C65.8785 23.4387 65.6764 23.9473 65.5753 24.4559C63.4024 32.6444 67.5461 41.2398 75.2778 44.5966C70.5782 41.3416 70.275 37.2727 71.033 34.2211Z" fill="white"/>
<path d="M92.055 36.0517C91.6507 36.1534 91.2464 36.2551 90.8927 36.306C89.5788 36.5094 88.2144 36.5603 86.9005 36.4077C86.3447 37.0689 85.8393 37.7809 85.4856 38.5439L85.4351 38.6964L85.3845 38.849C84.4244 40.9851 84.2223 43.4264 84.8792 45.6643C84.8792 45.766 84.9297 45.8677 84.9803 45.9695C85.4856 45.8677 85.9909 45.766 86.4457 45.6643C94.5816 43.4264 99.8876 35.5431 98.877 27.1511C98.4222 32.8983 95.087 35.1871 92.055 36.0517Z" fill="white"/>
<path d="M71.993 15.4028C69.5169 17.1321 67.5461 19.5734 66.3838 22.4215C69.9717 23.1844 72.8521 25.8292 73.9638 29.3385C74.4186 29.0334 75.8841 27.9145 76.8442 24.7611C78.0065 20.9466 80.23 18.1493 83.1104 16.9286C83.1104 16.8269 79.4214 11.5883 71.993 15.4028Z" fill="white"/>
<path d="M83.6662 42.8672C83.6662 40.3242 84.6263 37.832 86.3444 35.9502V35.8993C85.9907 35.5433 84.7779 34.6278 81.6448 35.3399C77.8043 36.2554 73.5089 36.1028 71.0328 34.2209C71.0328 34.2209 68.3545 40.019 75.3281 44.5965C78.057 45.868 81.1395 46.3766 84.1715 46.0206C83.8178 45.0034 83.6662 43.9353 83.6662 42.8672Z" fill="white"/>
<path d="M95.6429 18.7087C93.7226 20.8957 90.9938 22.1164 88.1134 22.1164C87.3554 22.1164 86.5974 22.0147 85.89 21.8621H85.8394C85.6878 22.3707 85.5868 23.8965 87.7092 26.1852C90.3874 29.1351 92.4593 32.8988 92.055 36.0013C92.055 36.0013 98.3717 35.4418 98.8265 27.0498C98.5739 24.0491 97.4621 21.15 95.6429 18.7087Z" fill="white"/>
<path d="M68.1528 55.5824H67.2432V51.2593H68.7086C69.7698 51.2593 70.4773 51.717 70.4773 52.6834C70.4773 53.6497 69.7698 54.2092 68.6076 54.2092H68.1528V55.5824ZM68.1528 53.3954H68.6581C69.214 53.3954 69.5677 53.192 69.5677 52.7342C69.5677 52.2765 69.2645 52.073 68.7086 52.073H68.2033L68.1528 53.3954Z" fill="white"/>
<path d="M71.1338 53.3953C71.1338 51.9204 72.0434 51.1575 73.2057 51.1575C74.5195 51.1575 75.2775 52.0221 75.2775 53.3953C75.2775 54.9211 74.3679 55.6332 73.2057 55.6332C72.0434 55.6332 71.1338 54.8703 71.1338 53.3953ZM74.3174 53.3953C74.3174 52.429 73.8626 51.9712 73.2057 51.9712C72.5487 51.9712 72.1445 52.429 72.1445 53.3953C72.1445 54.3617 72.6498 54.8194 73.3067 54.8194C73.9637 54.8194 74.3174 54.4125 74.3174 53.3953Z" fill="white"/>
<path d="M79.4216 55.4294C79.0679 55.6329 78.6636 55.6837 78.2594 55.6837C77.1476 55.7854 76.1875 54.9208 76.0864 53.8019C76.0864 53.7002 76.0864 53.5984 76.0864 53.4967C76.0864 52.0218 76.9455 51.208 78.3604 51.208C78.7142 51.208 79.1184 51.2589 79.4216 51.4115L79.2195 52.1744C78.9668 52.0726 78.7142 52.0726 78.4615 52.0218C77.7035 52.0218 77.0971 52.6321 77.0971 53.395C77.0971 54.1579 77.7035 54.7682 78.4615 54.7682C78.7142 54.7682 78.9668 54.6665 79.2195 54.5648L79.4216 55.4294Z" fill="white"/>
<path d="M82.8072 54.4126H80.988L80.5837 55.5824H80.0278L81.6449 51.2593H82.2008L83.8178 55.5824H83.262L82.8072 54.4126ZM81.1396 53.904H82.605L81.8976 51.8696L81.1396 53.904Z" fill="white"/>
<path d="M85.6879 55.5824H85.132V51.7679H83.8687V51.2593H86.9512V51.7679H85.6879V55.5824Z" fill="white"/>
<path d="M87.5576 53.3953C87.5576 52.0221 88.3662 51.1575 89.4779 51.1575C90.7412 51.1575 91.4487 52.073 91.4487 53.3953C91.4487 54.8703 90.6402 55.6332 89.5284 55.6332C88.4167 55.6332 87.5576 54.7686 87.5576 53.3953ZM90.8423 53.3953C90.8423 52.2255 90.337 51.6661 89.4779 51.6661C88.7199 51.6661 88.1135 52.2255 88.1135 53.3953C88.1135 54.5651 88.6694 55.1246 89.5284 55.1246C90.3875 55.1246 90.8423 54.5143 90.8423 53.3953Z" fill="white"/>
<path d="M96.8049 55.5824H96.249L95.9963 52.1748L94.8846 55.5824H94.3287L93.2675 52.2256L93.0149 55.5824H92.459L92.8127 51.2593H93.4697L94.6319 54.9721L95.7942 51.2593H96.4511L96.8049 55.5824Z" fill="white"/>
</svg>
