<svg width="165" height="67" viewBox="0 0 165 67" fill="none" xmlns="http://www.w3.org/2000/svg">
<path d="M95.2968 21.5543V22.5937H104.194C104.788 22.5937 105.677 22.5937 106.262 23.1881C106.846 23.7825 106.855 24.6741 106.855 25.2595V34.1756C106.855 34.77 106.855 35.6617 106.262 36.2471C105.668 36.8415 104.779 36.8415 104.194 36.8415H99.8984C99.1578 36.8415 98.1926 36.8415 97.8313 36.0237C97.461 35.2059 97.9794 34.4638 98.4244 33.8622L104.212 26.1349H95.3148L91.7557 30.8902C91.1589 31.6863 90.6431 32.3762 90.6431 33.2678C90.6431 34.1594 91.123 34.8007 91.7557 35.6454L92.6455 36.8343C93.5352 38.0231 94.425 39.2119 95.6114 39.8063C96.7977 40.4007 98.1998 40.4007 100.141 40.4007H103.988C106.217 40.4007 109.542 40.4007 111.771 38.1672C114 35.9336 114 32.6734 114 31.4846V27.9181C114 26.7293 114 23.4691 111.771 21.2355C109.542 19.002 106.217 19.002 103.988 19.002L97.8403 19C97.2471 18.9998 96.5065 19 95.9169 19.5944C95.3238 20.1888 95.3238 20.9309 95.3238 21.5217" fill="white"/>
<path d="M84.6917 26.1653H93.4994L82.8942 40.4671H74.0864L84.6917 26.1653Z" fill="white"/>
<path d="M50 28.687C50 28.0926 50 27.3505 50.5932 26.7597C51.1864 26.1689 51.9269 26.1653 52.5165 26.1653H67.4178C69.3411 26.1653 70.7611 26.1653 71.9475 26.7597C73.1338 27.3541 74.0146 28.5429 74.9134 29.7317L75.8031 30.9206C76.434 31.7635 76.9158 32.4066 76.9158 33.2982C76.9158 34.1898 76.3999 34.8797 75.8031 35.6758L72.2441 40.4311H63.3464L69.1344 32.7038C69.5784 32.1094 70.0979 31.3673 69.7276 30.5423C69.3573 29.7245 68.3938 29.7245 67.6604 29.7245H60.6861V47.5568H53.568V29.7245H50.009V28.6834" fill="white"/>
</svg>
