<svg width="165" height="67" viewBox="0 0 165 67" fill="none" xmlns="http://www.w3.org/2000/svg">
<path d="M60.7276 49.8333H58.4157L53.667 38.5362H56.9834L59.6565 45.7285H59.7036L62.3287 38.5362H65.455L60.7276 49.8333Z" fill="white"/>
<path d="M83.0726 41.4558C82.4994 41.1236 81.9526 41.0518 81.6415 41.0518C80.9736 41.0518 80.3536 41.2888 79.5657 41.9304V49.7629H76.3428V38.5358H79.0641L79.4221 39.699C80.45 38.7979 81.3299 38.2754 82.5239 38.2754C83.0726 38.2754 83.7422 38.4415 84.2412 38.7979L83.0726 41.4558Z" fill="white"/>
<path d="M87.8149 50C85.8817 50 84.4261 49.5483 83.3511 48.8842L84.3548 46.5586C85.3085 47.2218 86.4322 47.6026 87.5051 47.6026C88.6025 47.6026 89.2949 47.247 89.2949 46.582C89.2949 44.8019 84.0677 45.5146 84.0677 41.7169C84.0677 39.6516 85.7382 38.2755 88.4816 38.2755C89.987 38.2755 91.0364 38.4891 91.9659 38.8455V41.5034C90.941 41.0985 89.8436 40.7432 88.627 40.7432C87.6956 40.7432 87.1938 41.0033 87.1938 41.55C87.1938 43.0922 92.5146 42.523 92.5146 46.44C92.5146 49.0269 90.2244 50 87.8149 50Z" fill="white"/>
<path d="M97.5346 50C95.4334 50 94.6458 48.8133 94.6458 47.2938V41.3484H92.5698V38.8306H94.6458V35.9256L97.8683 34.9751V38.8306H101.4L100.764 41.3484H97.8683V46.0847C97.8683 46.9132 98.2013 47.317 98.9422 47.317C99.6327 47.317 100.349 47.01 100.779 46.7472L101.615 48.7424C100.327 49.6679 98.6545 50 97.5346 50Z" fill="white"/>
<path d="M108.348 44.6835L106.941 44.7303C105.557 44.7787 104.888 45.2536 104.888 46.1078C104.888 46.9607 105.508 47.5074 106.607 47.5074C107.465 47.5074 108.038 47.2218 108.348 46.9848V44.6835ZM109.136 49.7631L108.634 48.789C107.895 49.4542 106.894 50 105.436 50C103.289 50 101.669 48.5764 101.669 46.3429C101.669 43.9708 103.6 42.7366 106.462 42.6414L108.372 42.5715C108.372 42.523 108.372 42.4287 108.372 42.3804C108.372 41.1954 107.418 40.6964 106.298 40.6964C105.152 40.6964 104.171 41.0283 103.41 41.4559L102.429 39.5098C103.981 38.5106 105.461 38.2755 106.988 38.2755C109.996 38.2755 111.666 39.4856 111.666 42.4519V49.777L109.136 49.7631Z" fill="white"/>
<path d="M116.331 49.7771V31.7371L113.086 32.713V49.7771H116.331Z" fill="white"/>
<path d="M37.2586 50C34.9883 50 33.3671 49.2639 32 48.4318L33.4345 45.7562C34.5226 46.4887 36.0688 47.3161 37.0717 47.3161C38.1051 47.3161 39.4532 46.9794 39.4532 45.7881C39.4532 43.7235 35.7291 43.3542 33.8197 41.1954C33.2254 40.5071 32.8185 39.6283 32.8185 38.4174C32.8185 36.0451 34.7035 33.9544 38.1636 33.9544C39.8346 33.9544 41.2169 34.3828 42.1259 34.9052L42.0781 37.9007C40.7415 37.1889 39.472 36.5648 38.1823 36.5648C37.0133 36.5648 36.2423 37.0815 36.2423 37.9827C36.2423 40.6888 43.0074 40.4575 43.0074 45.3719C43.0074 48.2201 40.4779 50 37.2586 50Z" fill="white"/>
<path d="M70.0067 40.6308C68.7226 40.6308 67.9853 41.8118 67.9853 42.8306H72.0502C71.978 41.765 71.3844 40.6308 70.0067 40.6308ZM68.0565 45.0282C68.1278 46.5405 69.5535 47.4389 71.0505 47.4389C72.1441 47.4389 72.9778 47.227 74.2412 46.6357L74.9785 48.6691C73.4056 49.6376 71.8597 49.9697 70.5279 49.9697C66.4893 49.9697 64.8228 47.1309 64.8228 44.2008C64.8228 41.0329 66.7256 38.2892 70.1003 38.2892C73.1909 38.2892 75.3308 40.583 75.3308 44.0588C75.3308 44.2736 75.3308 44.6021 75.3308 45.0282H68.0565Z" fill="white"/>
<path d="M48.9642 40.6308C47.6802 40.6308 46.9449 41.8118 46.9449 42.8306H51.0099C50.9386 41.765 50.342 40.6308 48.9642 40.6308ZM47.0142 45.0282C47.0865 46.5405 48.5131 47.4389 50.011 47.4389C51.1046 47.4389 51.9355 47.227 53.2008 46.6357L53.9382 48.6691C52.3633 49.6376 50.8176 49.9697 49.4866 49.9697C45.4462 49.9697 43.7832 47.1309 43.7832 44.2008C43.7832 41.0329 45.6853 38.2892 49.0582 38.2892C52.1485 38.2892 54.2889 40.583 54.2889 44.0588C54.2889 44.2736 54.2889 44.6021 54.2889 45.0282H47.0142Z" fill="white"/>
<path d="M129.875 28.8495C130.082 28.7842 130.283 28.6762 130.478 28.5379C130.778 27.7693 131.056 26.9128 131.305 25.9614H131.304C131.632 24.7003 131.831 23.5621 131.928 22.5396C132.026 21.5022 132.019 20.5843 131.936 19.7745C131.846 18.9275 131.622 18.0636 131.114 17.5674C130.607 17.0711 129.737 16.8622 128.882 16.7894C128.699 16.7759 128.511 16.7661 128.318 16.76H127.412C127 16.7724 126.565 16.8018 126.109 16.851C126.329 16.9499 126.524 17.0711 126.685 17.2147C127.194 17.6793 127.432 18.4685 127.535 19.2428C127.61 19.8063 127.642 20.4257 127.619 21.1029C127.584 22.1981 127.407 23.4463 127.039 24.8624C126.755 25.9557 126.419 26.9035 126.051 27.7282C126.622 28.0772 127.167 28.3552 127.685 28.5679C128.412 28.8664 129.219 29.0567 129.875 28.8495Z" fill="white"/>
<path d="M117.846 26.5046C117.8 26.7154 117.794 26.9449 117.817 27.1839C118.335 27.8237 118.939 28.488 119.642 29.1763C120.58 30.0925 121.478 30.8313 122.324 31.4245C123.176 32.0235 123.976 32.4751 124.716 32.8127C125.494 33.1709 126.362 33.4005 127.048 33.212C127.733 33.0218 128.351 32.3741 128.842 31.6747C129.31 31.0085 129.763 30.2081 130.182 29.2546C129.983 29.3965 129.778 29.5084 129.567 29.5738C128.91 29.7809 128.104 29.5907 127.377 29.2921C126.849 29.0755 126.293 28.7939 125.713 28.4357C124.78 27.8573 123.781 27.0811 122.731 26.0569V26.055C121.923 25.2639 121.266 24.5027 120.732 23.7731C120.143 24.0887 119.63 24.4185 119.187 24.7584C118.564 25.2361 117.995 25.8347 117.846 26.5046Z" fill="white"/>
<path d="M125.896 17.2986C125.744 17.1606 125.556 17.0448 125.35 16.9499C124.524 17.0729 123.635 17.2596 122.672 17.5244C121.414 17.8715 120.325 18.2689 119.387 18.6961C118.443 19.1272 117.651 19.5878 116.991 20.06C116.288 20.5618 115.638 21.1927 115.458 21.8848C115.28 22.577 115.54 23.4408 115.909 24.2186C116.255 24.9501 116.725 25.7356 117.34 26.5676C117.316 26.3232 117.322 26.09 117.37 25.8755C117.518 25.2076 118.088 24.6067 118.709 24.129C119.161 23.784 119.683 23.4481 120.285 23.1272C121.255 22.6104 122.433 22.1384 123.851 21.7466C124.941 21.4462 125.931 21.2617 126.832 21.1662C126.852 20.4965 126.82 19.8827 126.745 19.3267C126.642 18.5524 126.405 17.7616 125.896 17.2986Z" fill="white"/>
</svg>
