<svg width="165" height="67" viewBox="0 0 165 67" fill="none" xmlns="http://www.w3.org/2000/svg">
<path fill-rule="evenodd" clip-rule="evenodd" d="M82.4997 14.9998C92.6789 14.9998 101 23.3203 101 33.5172C101 43.6967 92.6792 51.9998 82.4997 51.9998C72.3203 51.9998 64 43.6964 64 33.517C64 23.3203 72.3203 14.9998 82.4997 14.9998ZM70.1142 23.5635L76.7499 40.778L79.1817 34.4897H85.5568L87.9884 40.778L94.6937 23.355C93.5105 21.9275 92.088 20.7167 90.4898 19.7768L85.8347 32.5964H79.2683L74.596 19.7244C72.8762 20.7146 71.365 22.0176 70.1142 23.5635ZM97.3692 27.8889L89.8126 47.6048C94.8853 44.947 98.3763 39.6317 98.3763 33.5172C98.3763 31.5368 98.0292 29.6433 97.3692 27.8889ZM86.5121 48.89L86.4605 48.4904L82.3605 37.8595L78.2611 48.4904L78.2439 48.8207C79.5988 49.2025 81.0232 49.3938 82.4997 49.3938C83.8892 49.3938 85.2268 49.2202 86.5121 48.89ZM74.8738 47.4309L67.5088 28.2363C66.9182 29.8864 66.6054 31.6583 66.6054 33.517C66.6054 39.4925 69.9406 44.7382 74.8738 47.4309ZM82.4997 17.6226C83.8892 17.6226 85.2615 17.7965 86.5645 18.1436L82.5519 29.2437L78.5218 18.1264C79.821 17.7903 81.1577 17.621 82.4997 17.6226Z" fill="white"/>
</svg>
